<?xml version="1.0" encoding="utf-8"?>
<!-- Generator: Adobe Illustrator 24.0.1, SVG Export Plug-In . SVG Version: 6.00 Build 0)  -->
<svg version="1.1" id="Layer_1" xmlns="http://www.w3.org/2000/svg" xmlns:xlink="http://www.w3.org/1999/xlink" x="0px" y="0px"
	 viewBox="0 0 500 451.43" style="enable-background:new 0 0 500 451.43;" xml:space="preserve">
<path d="M370.76,0C284.01,0,250,73.73,250,73.73S215.99,0,129.24,0S0,68.84,0,147.47c0,159.51,209.5,303.96,250,303.96
	c40.5,0,250-144.46,250-303.96C500,68.84,457.5,0,370.76,0z M181.8,194.51c-3.2,2.4-6.27,5.2-9.2,8.4c-0.27,0.27-0.67,0.63-1.2,1.1
	c-0.53,0.47-0.93,0.97-1.2,1.5c-5.6,9.6-12.8,20.07-21.6,31.4c-8.8,11.33-19.13,22-31,32c-1.47,1.33-3.2,2-5.2,2
	c-3.07,0-5.93-1.67-8.6-5c-2.67-3.33-4-7.6-4-12.8c0-3.47,0.67-6.93,2-10.4c1.87-4.8,5-9.4,9.4-13.8c4.4-4.4,8.93-8.4,13.6-12
	c4.67-3.6,8.9-6.63,12.7-9.1c3.8-2.47,6.1-4.17,6.9-5.1c7.73-9.33,14.33-17.73,19.8-25.2c5.47-7.47,9.93-14.13,13.4-20
	c3.47-5.87,6-10.93,7.6-15.2c1.6-4.27,2.4-7.87,2.4-10.8c0-3.6-1.1-6.23-3.3-7.9c-2.2-1.67-5.23-2.5-9.1-2.5
	c-6.67,0-15.07,2.07-25.2,6.2c-10.13,4.13-21.2,9.8-33.2,17c-10.53,6.27-19.77,12.37-27.7,18.3c-7.93,5.93-14.57,11.5-19.9,16.7
	c-5.33,5.2-9.33,9.9-12,14.1c-2.67,4.2-4,7.7-4,10.5c0,2.13,0.87,3.77,2.6,4.9c1.73,1.13,4.13,1.7,7.2,1.7
	c6.13,0,15.27-2.3,27.4-6.9c12.13-4.6,27.2-12.03,45.2-22.3c2.27-1.33,4.13-2.27,5.6-2.8c1.47-0.53,2.53-0.8,3.2-0.8
	c0.67,0,1,0.2,1,0.6c0,1.6-2.47,4.33-7.4,8.2c-3.6,2.93-8.23,6.53-13.9,10.8c-5.67,4.27-11.77,8.37-18.3,12.3
	c-6.53,3.93-13.3,7.3-20.3,10.1c-7,2.8-13.57,4.2-19.7,4.2c-4.13,0-7.97-0.77-11.5-2.3c-3.53-1.53-6.57-4.23-9.1-8.1
	c-2.67-4-4.73-7.87-6.2-11.6c-1.47-3.73-2.2-7.4-2.2-11c0-2.93,0.47-5.8,1.4-8.6c0.93-2.8,2.53-5.6,4.8-8.4
	c8.53-10.67,18.1-20.17,28.7-28.5c10.6-8.33,21.43-15.4,32.5-21.2c11.07-5.8,22-10.2,32.8-13.2c10.8-3,20.67-4.5,29.6-4.5
	c10.93,0,19.83,2.4,26.7,7.2c6.87,4.8,10.3,12.13,10.3,22c0,6.93-2.13,15.53-6.4,25.8c-4.27,10.27-10.93,21.6-20,34
	c0.53-0.4,1.9-1.3,4.1-2.7c2.2-1.4,4.8-3.07,7.8-5c3-1.93,6.27-3.93,9.8-6c3.53-2.07,6.9-4.03,10.1-5.9c0.93-0.53,1.7-0.87,2.3-1
	c0.6-0.13,1.03-0.2,1.3-0.2c0.27,0,0.4,0.07,0.4,0.2c0,0.53-0.73,1.27-2.2,2.2c-3.07,2-6.23,3.83-9.5,5.5
	c-3.27,1.67-6.53,3.47-9.8,5.4C188.23,189.95,185,192.11,181.8,194.51z M396.7,193.31c-3.67,3.87-8.43,7.6-14.3,11.2
	c-4.67,2.93-9.57,5.6-14.7,8c-5.13,2.4-9.9,4.5-14.3,6.3c-4.4,1.8-8.07,3.3-11,4.5c-2.93,1.2-4.53,2-4.8,2.4
	c-0.67,0.93-1.47,1.4-2.4,1.4c-0.67,0-1.27-0.23-1.8-0.7c-0.53-0.47-0.8-1.37-0.8-2.7c0-1.07,0.23-2.33,0.7-3.8
	c0.47-1.47,1.43-3.2,2.9-5.2c1.07-1.47,2.77-3.2,5.1-5.2c2.33-2,4.97-4.17,7.9-6.5c2.93-2.33,6.1-4.7,9.5-7.1
	c3.4-2.4,6.7-4.73,9.9-7c5.6-3.87,10.4-7.4,14.4-10.6c4-3.2,6-5.53,6-7c0-0.8-1.07-1.2-3.2-1.2c-6.67,0.27-13.23,2.23-19.7,5.9
	c-6.47,3.67-13.37,8.5-20.7,14.5c-1.2,1.07-2.77,2.6-4.7,4.6c-1.93,2-3.3,3.53-4.1,4.6c-2.13,2.53-4.57,5.63-7.3,9.3
	c-2.73,3.67-5.47,7.63-8.2,11.9c-2.73,4.27-5.43,8.6-8.1,13c-2.67,4.4-5,8.57-7,12.5c-2,3.93-3.63,7.43-4.9,10.5
	c-1.27,3.07-1.9,5.33-1.9,6.8c0,1.2,0.4,1.8,1.2,1.8c0.27,0,0.57-0.07,0.9-0.2c0.33-0.13,0.63-0.27,0.9-0.4
	c1.2-0.4,2.07-0.6,2.6-0.6c0.53,0,0.8,0.2,0.8,0.6c0,0.4-0.53,1.33-1.6,2.8c-1.2,1.6-2.53,2.4-4,2.4c-1.2,0-2.4-0.37-3.6-1.1
	c-1.2-0.73-2.33-1.7-3.4-2.9c-1.07-1.2-1.97-2.47-2.7-3.8c-0.73-1.33-1.17-2.6-1.3-3.8c-0.13-0.67-0.23-1.33-0.3-2
	c-0.07-0.67-0.1-1.33-0.1-2c0-4.13,0.87-8.93,2.6-14.4c1.73-5.47,4-11.17,6.8-17.1c2.01-4.26,4.19-8.53,6.51-12.8
	c-2.86,3.37-5.86,6.61-9.01,9.7c-3.4,3.33-6.87,6.13-10.4,8.4c-3.53,2.27-6.83,3.4-9.9,3.4c-3.6,0-6.53-1.73-8.8-5.2
	c-2.4-3.6-3.6-7.87-3.6-12.8c0-3.47,0.5-7.14,1.47-11.01c-0.36,0.37-0.71,0.74-1.07,1.11c-4.93,5-10.17,9.6-15.7,13.8
	c-5.53,4.2-11.17,7.67-16.9,10.4c-5.73,2.73-11.07,4.1-16,4.1c-3.07,0-5.83-0.63-8.3-1.9c-2.47-1.27-4.7-3.43-6.7-6.5
	c-1.07-1.73-1.83-3.53-2.3-5.4c-0.47-1.87-0.7-3.73-0.7-5.6c0-3.73,0.67-7.53,2-11.4c1.33-3.87,3-7.53,5-11
	c1.87-3.33,4.2-6.93,7-10.8c2.8-3.87,5.77-7.47,8.9-10.8c3.13-3.33,6.33-6.13,9.6-8.4c3.27-2.27,6.3-3.4,9.1-3.4
	c1.47,0,2.93,0.4,4.4,1.2c3.87,2.67,6.9,5.23,9.1,7.7c2.2,2.47,4.23,5.03,6.1,7.7c0.8,1.2,1.2,2.53,1.2,4c0,2.27-0.97,4.53-2.9,6.8
	c-1.93,2.27-4.33,4.37-7.2,6.3c-2.87,1.93-5.87,3.67-9,5.2c-3.13,1.53-5.9,2.7-8.3,3.5c-1.47,0.4-2.47,0.6-3,0.6
	c-1.2,0-1.8-0.4-1.8-1.2c0-0.67,0.3-1.3,0.9-1.9c0.6-0.6,1.23-1.17,1.9-1.7c6-4,10.8-7.67,14.4-11c3.6-3.33,5.6-6.73,6-10.2
	c0.13-1.07,0.03-1.73-0.3-2c-0.33-0.27-0.77-0.4-1.3-0.4c-0.67,0-1.4,0.2-2.2,0.6c-0.8,0.4-1.67,0.8-2.6,1.2
	c-2.4,1.2-5.37,3.2-8.9,6c-3.53,2.8-7.07,6.27-10.6,10.4c-3.53,4.13-6.7,8.83-9.5,14.1c-2.8,5.27-4.73,10.97-5.8,17.1
	c-0.27,2,0,3.33,0.8,4c0.8,0.67,1.87,1,3.2,1c3.07,0,7.37-1.37,12.9-4.1c5.53-2.73,11.37-6.1,17.5-10.1c6.13-4,12-8.2,17.6-12.6
	c2.36-1.86,4.5-3.61,6.44-5.28c2.59-6.45,5.81-13.02,9.66-19.72c4.07-7.07,8.43-13.97,13.1-20.7c4.67-6.73,9.03-12.83,13.1-18.3
	c4.07-5.47,7.43-10.1,10.1-13.9c2.67-3.8,4-6.23,4-7.3c0-0.53-0.2-0.8-0.6-0.8c-0.13,0-0.6,0.13-1.4,0.4c-1.2,0.4-2.4,0.8-3.6,1.2
	c-1.2,0.4-2.13,0.6-2.8,0.6c-0.53,0-0.8-0.2-0.8-0.6c0-0.53,0.67-1.47,2-2.8c2.27-2.27,4.47-3.4,6.6-3.4c2,0,3.77,0.87,5.3,2.6
	c1.53,1.73,2.57,3,3.1,3.8c0.93,1.47,1.5,2.57,1.7,3.3c0.2,0.73,0.3,1.43,0.3,2.1c0,3.47-1.27,8.13-3.8,14
	c-2.53,5.87-5.7,12.33-9.5,19.4c-3.8,7.07-7.93,14.4-12.4,22c-4.47,7.6-8.6,14.7-12.4,21.3c-3.8,6.6-6.97,12.4-9.5,17.4
	c-2.53,5-3.8,8.57-3.8,10.7c0,0.67,0.33,1,1,1c1.2,0,3.43-1.23,6.7-3.7c3.27-2.47,6.77-5.33,10.5-8.6c3.73-3.27,7.3-6.47,10.7-9.6
	c3.4-3.13,5.83-5.43,7.3-6.9c0.09-0.08,0.18-0.15,0.27-0.22c1.81-3.01,3.62-5.94,5.43-8.78c3.4-5.33,6.57-10.13,9.5-14.4
	c2.93-4.27,5.27-7.67,7-10.2c0.53-0.67,0.8-1.27,0.8-1.8c0-0.67-0.27-1.17-0.8-1.5c-0.53-0.33-0.73-0.77-0.6-1.3
	c0.13-1.47,1.07-2.2,2.8-2.2c1.33,0,2.87,0.4,4.6,1.2c1.73,0.8,3.33,1.6,4.8,2.4c1.47,0.93,2.73,2.2,3.8,3.8
	c1.07,1.6,1.6,3.47,1.6,5.6c0,1.33-0.33,2.93-1,4.8c-0.67,1.87-1.73,3.8-3.2,5.8c-0.4,0.67-0.6,1.07-0.6,1.2
	c0,0.27,0.13,0.4,0.4,0.4c0.27,0,0.7-0.17,1.3-0.5c0.6-0.33,1.23-0.7,1.9-1.1c5.87-4.13,11.93-7.87,18.2-11.2c6.27-3.33,12-5,17.2-5
	c3.07,0,5.6,0.73,7.6,2.2c3.33,2.53,5.73,4.97,7.2,7.3c1.47,2.33,2.2,4.77,2.2,7.3C402.2,185.38,400.36,189.45,396.7,193.31z
	 M454,198.51c-2.13,3.07-4.8,6.43-8,10.1c-3.2,3.67-6.57,7.1-10.1,10.3c-3.53,3.2-7.07,5.87-10.6,8c-3.53,2.13-6.77,3.2-9.7,3.2
	c-1.33,0-2.53-0.27-3.6-0.8c-3.73-1.87-6.23-3.9-7.5-6.1c-1.27-2.2-1.9-4.83-1.9-7.9c0-3.87,0.9-8.07,2.7-12.6
	c1.8-4.53,4-9.07,6.6-13.6c2.6-4.53,5.27-8.9,8-13.1c2.73-4.2,5.03-7.9,6.9-11.1c0.4-0.8,0.6-1.4,0.6-1.8c0-0.67-0.37-0.97-1.1-0.9
	c-0.73,0.07-1.1-0.23-1.1-0.9c0-0.27,0.13-0.63,0.4-1.1c0.27-0.47,0.8-0.7,1.6-0.7c0.8,0,1.77,0.23,2.9,0.7
	c1.13,0.47,2.27,1.03,3.4,1.7c1.13,0.67,2.17,1.4,3.1,2.2c0.93,0.8,1.67,1.6,2.2,2.4c1.47,2.13,2.2,4.27,2.2,6.4
	c0,1.87-0.37,3.73-1.1,5.6c-0.73,1.87-1.77,3.73-3.1,5.6c-1.73,2.67-3.97,5.77-6.7,9.3c-2.73,3.53-5.37,7.17-7.9,10.9
	c-2.53,3.73-4.73,7.37-6.6,10.9c-1.87,3.53-2.8,6.57-2.8,9.1c0,0.53,0.4,0.8,1.2,0.8c1.33,0,3.5-0.73,6.5-2.2
	c3-1.47,6.33-3.5,10-6.1c3.67-2.6,7.4-5.57,11.2-8.9c3.8-3.33,7.17-6.93,10.1-10.8c0.53-0.67,1.13-1,1.8-1c0.53,0,0.8,0.33,0.8,1
	C454.4,197.51,454.26,197.98,454,198.51z M456.3,148.31c-2.47,2.53-5.03,3.8-7.7,3.8c-1.47,0-2.87-0.57-4.2-1.7
	c-1.33-1.13-2.33-2.83-3-5.1c-0.27-0.8-0.27-1.47,0-2c0.27-0.53,0.53-1.07,0.8-1.6c0.67-0.93,1.67-1.63,3-2.1
	c1.33-0.47,2.87-0.9,4.6-1.3c1.73-0.4,3.53-0.87,5.4-1.4c1.87-0.53,3.67-1.4,5.4-2.6c0.27-0.27,0.53-0.1,0.8,0.5
	c0.27,0.6,0.27,1.63,0,3.1C460.46,142.31,458.76,145.78,456.3,148.31z"/>
</svg>
